<?xml version="1.0" encoding="utf-8"?>
<!-- Generator: Adobe Illustrator 27.0.0, SVG Export Plug-In . SVG Version: 6.00 Build 0)  -->
<svg version="1.1" id="Layer_1" xmlns="http://www.w3.org/2000/svg" xmlns:xlink="http://www.w3.org/1999/xlink" x="0px" y="0px"
	 viewBox="0 0 32 32" style="enable-background:new 0 0 32 32;" xml:space="preserve">
<style type="text/css">
	.st0{fill:#4862AD;}
	.st1{display:none;fill:none;}
</style>
<g transform="matrix(0.8046875,0,0,0.8046875,12.760752631578946,12.76064391989447)">
	
		<g id="tight-bounds_00000094589388186745871970000002621072604209397170_" transform="matrix(1,0,0,1,-0.24049999999999727,-0.2402185481980723)">
		<g>
			<g>
				<g id="textblocktransform_00000008111536943444493590000010073275149915753124_">
					<g>
						<g>
							<g>
								<path class="st0" d="M-9.1-1.63c-0.56,3.6,0.22,7.17,2.13,9.78c1.47,2.01,3.52,3.31,5.77,3.66
									c2.37,0.37,4.71-0.18,6.57-1.54c0.52-0.38,0.99-0.81,1.39-1.29C5.83,9.39,4.75,9.51,3.57,9.33
									c-4.9-0.76-8.23-5.63-7.42-10.86c0.39-2.52,1.83-4.81,4.06-6.44c2.83-2.07,6.67-2.92,10.54-2.32
									c3.13,0.48,7.39,2.5,10.69,6.36c0,0-9.55-16.49-23.48-8.52C-6.52-9.87-8.62-4.74-9.1-1.63z"/>
								<path class="st0" d="M18.11,10.72c0.69-3.58,0.05-7.17-1.76-9.86c-1.39-2.06-3.39-3.44-5.63-3.87
									c-2.36-0.46-4.71,0-6.62,1.29C3.56-1.36,3.08-0.94,2.66-0.48c0.94-0.37,2.03-0.45,3.2-0.23c4.87,0.94,8.01,5.94,7,11.13
									c-0.49,2.51-2.01,4.74-4.3,6.28c-2.91,1.96-6.78,2.66-10.62,1.92c-3.11-0.6-7.29-2.77-10.44-6.76c0,0,8.92,16.84,23.14,9.39
									C15.21,18.86,17.51,13.8,18.11,10.72z"/>
								<path class="st0" d="M-1.48,18.09c3.6,0.56,7.17-0.22,9.78-2.13c2.01-1.47,3.31-3.52,3.66-5.77
									c0.37-2.37-0.18-4.71-1.54-6.57C10.03,3.1,9.6,2.63,9.13,2.23c0.41,0.93,0.53,2.01,0.35,3.19
									c-0.76,4.9-5.63,8.23-10.86,7.42C-3.91,12.44-6.2,11-7.83,8.77C-9.9,5.94-10.74,2.1-10.14-1.77
									c0.48-3.13,2.5-7.39,6.36-10.69c0,0-16.49,9.55-8.52,23.48C-9.72,15.5-4.58,17.61-1.48,18.09z"/>
								<path class="st0" d="M21.41-1.64c-2.4-4.58-7.46-6.88-10.54-7.48C7.29-9.82,3.7-9.17,1.01-7.36
									c-2.06,1.39-3.44,3.39-3.87,5.63c-0.46,2.36,0,4.71,1.29,6.62c0.36,0.54,0.78,1.02,1.23,1.44c-0.37-0.94-0.45-2.03-0.23-3.2
									c0.94-4.87,5.94-8.01,11.13-7c2.51,0.49,4.74,2.01,6.28,4.3c1.96,2.91,2.66,6.78,1.92,10.62c-0.6,3.11-2.77,7.29-6.76,10.44
									C12.01,21.5,28.85,12.57,21.41-1.64z"/>
							</g>
						</g>
					</g>
				</g>
			</g>
		</g>
		<rect x="-14.47" y="-14.62" class="st1" width="37.78" height="37.78"/>
	</g>
</g>
</svg>
